<svg xmlns="http://www.w3.org/2000/svg" xmlns:xlink="http://www.w3.org/1999/xlink" xmlns:lucid="lucid" width="1810.66" height="1199.36"><g transform="translate(215.7644034790601 -38.5333333333333)" lucid:page-tab-id="0_0"><path d="M-500 0h2500v1500H-500z" fill="#fff"/><path d="M-195.76 58.53h348.32v199h-348.32z" stroke="#333" stroke-width="2" fill="#fff"/><path d="M-195.76 96.13h348.32m-348.32 59.1h348.32" stroke="#333" stroke-width="2" fill="none"/><use xlink:href="#a" transform="matrix(1,0,0,1,-187.7644034790601,66.5333333333333) translate(136.05 14.6)"/><use xlink:href="#b" transform="matrix(1,0,0,1,-183.7644034790601,163.2333333333333) translate(0 25.5)"/><use xlink:href="#c" transform="matrix(1,0,0,1,-183.7644034790601,163.2333333333333) translate(102.4 25.5)"/><use xlink:href="#d" transform="matrix(1,0,0,1,-183.7644034790601,163.2333333333333) translate(112.4 25.5)"/><use xlink:href="#e" transform="matrix(1,0,0,1,-183.7644034790601,163.2333333333333) translate(0 47.1)"/><use xlink:href="#f" transform="matrix(1,0,0,1,-183.7644034790601,163.2333333333333) translate(136.45 47.1)"/><use xlink:href="#c" transform="matrix(1,0,0,1,-183.7644034790601,163.2333333333333) translate(188.39999999999998 47.1)"/><use xlink:href="#g" transform="matrix(1,0,0,1,-183.7644034790601,163.2333333333333) translate(198.39999999999998 47.1)"/><use xlink:href="#h" transform="matrix(1,0,0,1,-183.7644034790601,163.2333333333333) translate(0 68.7)"/><use xlink:href="#i" transform="matrix(1,0,0,1,-183.7644034790601,163.2333333333333) translate(154.45 68.7)"/><use xlink:href="#c" transform="matrix(1,0,0,1,-183.7644034790601,163.2333333333333) translate(255.35 68.7)"/><use xlink:href="#j" transform="matrix(1,0,0,1,-183.7644034790601,163.2333333333333) translate(265.35 68.7)"/><path d="M-195.76 752.53h348.32v156h-348.32z" stroke="#333" stroke-width="2" fill="#fff"/><path d="M-195.76 790.13h348.32m-348.32 59.1h348.32" stroke="#333" stroke-width="2" fill="none"/><use xlink:href="#k" transform="matrix(1,0,0,1,-187.7644034790601,760.5321441101839) translate(129.55 14.6)"/><use xlink:href="#l" transform="matrix(1,0,0,1,-183.7644034790601,857.232144110184) translate(0 25.6)"/><use xlink:href="#m" transform="matrix(1,0,0,1,-183.7644034790601,857.232144110184) translate(117.25000000000001 25.6)"/><use xlink:href="#j" transform="matrix(1,0,0,1,-183.7644034790601,857.232144110184) translate(168.15000000000003 25.6)"/><path d="M-21.6 751.03v-476.1" stroke="#3a414a" fill="none"/><path d="M-21.1 751.53h-1v-.5h1z" stroke="#3a414a" stroke-width=".05" fill="#3a414a"/><path d="M-21.6 260.15l4.64 14.27h-9.27z" stroke="#3a414a" fill="#3a414a"/><path d="M292.24 285.03h348.32v264H292.24z" stroke="#333" stroke-width="2" fill="#fff"/><path d="M292.24 322.63h348.32m-348.32 59.1h348.32" stroke="#333" stroke-width="2" fill="none"/><use xlink:href="#n" transform="matrix(1,0,0,1,300.23559652094013,293.0333333333333) translate(144.075 14.6)"/><use xlink:href="#o" transform="matrix(1,0,0,1,304.23559652094013,389.73333333333335) translate(0 25.6)"/><use xlink:href="#p" transform="matrix(1,0,0,1,304.23559652094013,389.73333333333335) translate(91.4 25.6)"/><use xlink:href="#q" transform="matrix(1,0,0,1,304.23559652094013,389.73333333333335) translate(0 47.2)"/><use xlink:href="#p" transform="matrix(1,0,0,1,304.23559652094013,389.73333333333335) translate(110.35000000000001 47.2)"/><use xlink:href="#r" transform="matrix(1,0,0,1,304.23559652094013,389.73333333333335) translate(0 68.80000000000001)"/><use xlink:href="#p" transform="matrix(1,0,0,1,304.23559652094013,389.73333333333335) translate(100.60000000000001 68.80000000000001)"/><use xlink:href="#s" transform="matrix(1,0,0,1,304.23559652094013,389.73333333333335) translate(0 90.40000000000002)"/><use xlink:href="#g" transform="matrix(1,0,0,1,304.23559652094013,389.73333333333335) translate(90.4 90.40000000000002)"/><use xlink:href="#t" transform="matrix(1,0,0,1,304.23559652094013,389.73333333333335) translate(0 112.00000000000001)"/><use xlink:href="#g" transform="matrix(1,0,0,1,304.23559652094013,389.73333333333335) translate(109.35000000000001 112.00000000000001)"/><use xlink:href="#u" transform="matrix(1,0,0,1,304.23559652094013,389.73333333333335) translate(0 133.6)"/><use xlink:href="#j" transform="matrix(1,0,0,1,304.23559652094013,389.73333333333335) translate(99.60000000000001 133.6)"/><path d="M290.33 417.03H228.4a6 6 0 0 1-6-6v-247a6 6 0 0 0-6-6h-32.46" stroke="#3a414a" fill="none"/><path d="M273.04 427.2l17.2-10.17-17.2-10.18" stroke="#3a414a" fill="none"/><path d="M154.27 158.03l14.85-14.85 15.15 14.85-15.15 14.85z" stroke="#3a414a" fill="#fff"/><use xlink:href="#v" transform="matrix(1,0,0,1,160.22716051476715,321.6327704515332) translate(0 14.222222222222223)"/><path d="M292.24 58.53h348.32v156H292.24z" stroke="#333" stroke-width="2" fill="#fff"/><path d="M292.24 96.13h348.32m-348.32 59.1h348.32" stroke="#333" stroke-width="2" fill="none"/><use xlink:href="#w" transform="matrix(1,0,0,1,300.23559652094,66.5333333333333) translate(137.125 14.6)"/><use xlink:href="#x" transform="matrix(1,0,0,1,304.23559652094,163.2333333333333) translate(0 25.6)"/><use xlink:href="#y" transform="matrix(1,0,0,1,304.23559652094,163.2333333333333) translate(105.30000000000001 25.6)"/><path d="M290.33 136.53H228.4a6 6 0 0 0-6 6v9.5a6 6 0 0 1-6 6h-32.46" stroke="#3a414a" fill="none"/><path d="M273.04 146.7l17.2-10.17-17.2-10.18" stroke="#3a414a" fill="none"/><path d="M154.27 158.03l14.85-14.85 15.15 14.85-15.15 14.85z" stroke="#3a414a" fill="#fff"/><use xlink:href="#z" transform="matrix(1,0,0,1,183.03857679589458,111.98357277650214) translate(0 14.222222222222223)"/><path d="M466.4 283.53v-67.1" stroke="#3a414a" fill="none"/><path d="M466.9 284.03h-1v-.5h1z" stroke="#3a414a" stroke-width=".05" fill="#3a414a"/><path d="M476.58 233.73l-10.18-17.2-10.18 17.2" stroke="#3a414a" fill="none"/><use xlink:href="#A" transform="matrix(1,0,0,1,474.40000000748586,239.11666666666665) translate(0 14.222222222222223)"/><path d="M623.9 608.03h455v177h-455z" stroke="#333" stroke-width="2" fill="#fff"/><path d="M623.9 667.23h455m-455 59.1h455" stroke="#333" stroke-width="2" fill="none"/><use xlink:href="#B" transform="matrix(1,0,0,1,631.8998534800126,616.0312391038879) translate(161.075 14.799999999999999)"/><use xlink:href="#C" transform="matrix(1,0,0,1,631.8998534800126,616.0312391038879) translate(156.3 36.4)"/><use xlink:href="#D" transform="matrix(1,0,0,1,635.8998534800126,734.3312391038879) translate(0 25.6)"/><use xlink:href="#c" transform="matrix(1,0,0,1,635.8998534800126,734.3312391038879) translate(106.4 25.6)"/><use xlink:href="#E" transform="matrix(1,0,0,1,635.8998534800126,734.3312391038879) translate(116.4 25.6)"/><use xlink:href="#F" transform="matrix(1,0,0,1,635.8998534800126,734.3312391038879) translate(173.3 25.6)"/><use xlink:href="#c" transform="matrix(1,0,0,1,635.8998534800126,734.3312391038879) translate(226.3 25.6)"/><use xlink:href="#G" transform="matrix(1,0,0,1,635.8998534800126,734.3312391038879) translate(236.3 25.6)"/><use xlink:href="#j" transform="matrix(1,0,0,1,635.8998534800126,734.3312391038879) translate(351.20000000000005 25.6)"/><path d="M1119.9 742.03h455v177h-455z" stroke="#333" stroke-width="2" fill="#fff"/><path d="M1119.9 801.23h455m-455 59.1h455" stroke="#333" stroke-width="2" fill="none"/><g><use xlink:href="#B" transform="matrix(1,0,0,1,1127.8979985910746,750.0321441101839) translate(161.075 14.799999999999999)"/><use xlink:href="#H" transform="matrix(1,0,0,1,1127.8979985910746,750.0321441101839) translate(151.625 36.4)"/></g><g><use xlink:href="#I" transform="matrix(1,0,0,1,1131.8979985910746,868.332144110184) translate(0 25.6)"/><use xlink:href="#c" transform="matrix(1,0,0,1,1131.8979985910746,868.332144110184) translate(121.25000000000001 25.6)"/><use xlink:href="#J" transform="matrix(1,0,0,1,1131.8979985910746,868.332144110184) translate(131.25 25.6)"/><use xlink:href="#K" transform="matrix(1,0,0,1,1131.8979985910746,868.332144110184) translate(194.1 25.6)"/></g><path d="M154.06 830.53h228.17a6 6 0 0 0 6-6v-122a6 6 0 0 1 6-6h212.3" stroke="#3a414a" fill="none"/><path d="M154.08 831.03h-.52v-1h.52z" stroke="#3a414a" stroke-width=".05" fill="#3a414a"/><path d="M621.28 696.53l-14.26 4.64v-9.27z" stroke="#3a414a" fill="#3a414a"/><path d="M154.06 830.53h948.45" stroke="#3a414a" fill="none"/><path d="M154.08 831.03h-.52v-1h.52z" stroke="#3a414a" stroke-width=".05" fill="#3a414a"/><path d="M1117.28 830.53l-14.27 4.64v-9.27z" stroke="#3a414a" fill="#3a414a"/><path d="M851.4 606.53v-183.5a6 6 0 0 0-6-6H657.95" stroke="#3a414a" fill="none"/><path d="M851.9 607.03h-1v-.5h1z" stroke="#3a414a" stroke-width=".05" fill="#3a414a"/><path d="M643.18 417.03l14.27-4.63v9.27z" stroke="#3a414a" fill="#3a414a"/><path d="M1347.4 740.53v-317.5a6 6 0 0 0-6-6H657.95" stroke="#3a414a" fill="none"/><path d="M1347.9 741.03h-1v-.5h1z" stroke="#3a414a" stroke-width=".05" fill="#3a414a"/><path d="M643.18 417.03l14.27-4.63v9.27z" stroke="#3a414a" fill="#3a414a"/><path d="M623.9 1061.9h455v156h-455z" stroke="#333" stroke-width="2" fill="#fff"/><path d="M623.9 1099.5h455m-455 59.1h455" stroke="#333" stroke-width="2" fill="none"/><g><use xlink:href="#L" transform="matrix(1,0,0,1,631.8998534800126,1069.8956978543679) translate(163.625 14.6)"/></g><path d="M1119.9 1061.9h455v156h-455z" stroke="#333" stroke-width="2" fill="#fff"/><path d="M1119.9 1099.5h455m-455 59.1h455" stroke="#333" stroke-width="2" fill="none"/><g><use xlink:href="#M" transform="matrix(1,0,0,1,1127.8979985910746,1069.8956978543679) translate(118.45000000000002 14.6)"/></g><path d="M1347.4 1060.4v-1.5m0-2v-2.98m0-2v-2.98m0-2v-2.98m0-2V1039m0-2V1034m0-2v-2.98m0-2v-2.98m0-2v-2.98m0-2v-2.98m0-2v-2.98m0-2v-2.98m0-2v-3m0-1.98v-3m0-1.98v-3m0-1.98v-3m0-1.98v-3m0-1.98v-3m0-1.98v-3m0-1.98v-3m0-1.98v-3m0-1.98v-3m0-1.98v-3m0-1.98v-3m0-1.98v-3m0-1.98v-3m0-1.98v-3m0-1.98v-3m0-2v-1.48" stroke="#3a414a" fill="none"/><path d="M1347.9 1060.9h-1v-.52h1z" stroke="#3a414a" stroke-width=".05" fill="#3a414a"/><path d="M1357.58 938.23L1347.4 921l-10.2 17.23M851.4 1060.4v-1.5m0-2v-2.97m0-2v-2.97m0-2V1044m0-2v-2.98m0-2v-2.97m0-2v-2.98m0-2v-2.97m0-2v-2.97m0-2v-2.97m0-2v-2.98m0-1.98v-3m0-1.98v-2.98m0-2v-2.97m0-2v-2.97m0-2v-2.97m0-2v-2.98m0-2v-2.97m0-2v-2.97m0-1.98v-2.98m0-2v-2.97m0-2v-2.98m0-2v-2.98m0-2v-2.97m0-2v-2.97m0-2v-2.97m0-1.98v-3m0-1.97v-3m0-1.98v-2.98m0-2v-2.98m0-2v-2.97m0-2v-2.98m0-1.98v-3m0-2v-2.97m0-2v-2.97m0-2v-2.97m0-2v-3m0-1.97v-3m0-1.98v-2.98m0-2V865m0-2v-2.97m0-2v-2.97m0-2v-2.98m0-2v-2.97m0-1.98v-2.98m0-2v-2.97m0-2v-2.97m0-2v-2.98m0-2v-2.97m0-2v-2.97m0-2v-2.97m0-1.98v-2.98m0-2v-2.98m0-1.98v-3m0-1.98v-2.98m0-2v-1.48" stroke="#3a414a" fill="none"/><path d="M851.9 1060.9h-1v-.52h1z" stroke="#3a414a" stroke-width=".05" fill="#3a414a"/><path d="M861.58 804.23L851.4 787l-10.18 17.23" stroke="#3a414a" fill="none"/><defs><path fill="#333" d="M24 0v-248h52v208h133V0H24" id="N"/><path fill="#333" d="M25-224v-37h50v37H25zM25 0v-190h50V0H25" id="O"/><path fill="#333" d="M135-194c52 0 70 43 70 98 0 56-19 99-73 100-30 1-46-15-58-35L72 0H24l1-261h50v104c11-23 29-37 60-37zM114-30c31 0 40-27 40-66 0-37-7-63-39-63s-41 28-41 65c0 36 8 64 40 64" id="P"/><path fill="#333" d="M135-150c-39-12-60 13-60 57V0H25l-1-190h47c2 13-1 29 3 40 6-28 27-53 61-41v41" id="Q"/><path fill="#333" d="M133-34C117-15 103 5 69 4 32 3 11-16 11-54c-1-60 55-63 116-61 1-26-3-47-28-47-18 1-26 9-28 27l-52-2c7-38 36-58 82-57s74 22 75 68l1 82c-1 14 12 18 25 15v27c-30 8-71 5-69-32zm-48 3c29 0 43-24 42-57-32 0-66-3-65 30 0 17 8 27 23 27" id="R"/><path fill="#333" d="M123 10C108 53 80 86 19 72V37c35 8 53-11 59-39L3-190h52l48 148c12-52 28-100 44-148h51" id="S"/><g id="a"><use transform="matrix(0.05,0,0,0.05,0,0)" xlink:href="#N"/><use transform="matrix(0.05,0,0,0.05,10.950000000000001,0)" xlink:href="#O"/><use transform="matrix(0.05,0,0,0.05,15.950000000000001,0)" xlink:href="#P"/><use transform="matrix(0.05,0,0,0.05,26.900000000000002,0)" xlink:href="#Q"/><use transform="matrix(0.05,0,0,0.05,33.900000000000006,0)" xlink:href="#R"/><use transform="matrix(0.05,0,0,0.05,43.900000000000006,0)" xlink:href="#Q"/><use transform="matrix(0.05,0,0,0.05,50.900000000000006,0)" xlink:href="#S"/></g><path fill="#333" d="M118-107v75H92v-75H18v-26h74v-75h26v75h74v26h-74" id="T"/><path fill="#333" d="M177-190C167-65 218 103 67 71c-23-6-38-20-44-43l32-5c15 47 100 32 89-28v-30C133-14 115 1 83 1 29 1 15-40 15-95c0-56 16-97 71-98 29-1 48 16 59 35 1-10 0-23 2-32h30zM94-22c36 0 50-32 50-73 0-42-14-75-50-75-39 0-46 34-46 75s6 73 46 73" id="U"/><path fill="#333" d="M100-194c63 0 86 42 84 106H49c0 40 14 67 53 68 26 1 43-12 49-29l28 8c-11 28-37 45-77 45C44 4 14-33 15-96c1-61 26-98 85-98zm52 81c6-60-76-77-97-28-3 7-6 17-6 28h103" id="V"/><path fill="#333" d="M59-47c-2 24 18 29 38 22v24C64 9 27 4 27-40v-127H5v-23h24l9-43h21v43h35v23H59v120" id="W"/><path fill="#333" d="M160-131c35 5 61 23 61 61C221 17 115-2 30 0v-248c76 3 177-17 177 60 0 33-19 50-47 57zm-97-11c50-1 110 9 110-42 0-47-63-36-110-37v79zm0 115c55-2 124 14 124-45 0-56-70-42-124-44v89" id="X"/><path fill="#333" d="M100-194c62-1 85 37 85 99 1 63-27 99-86 99S16-35 15-95c0-66 28-99 85-99zM99-20c44 1 53-31 53-75 0-43-8-75-51-75s-53 32-53 75 10 74 51 75" id="Y"/><path fill="#333" d="M143 0L79-87 56-68V0H24v-261h32v163l83-92h37l-77 82L181 0h-38" id="Z"/><path fill="#333" d="M135-143c-3-34-86-38-87 0 15 53 115 12 119 90S17 21 10-45l28-5c4 36 97 45 98 0-10-56-113-15-118-90-4-57 82-63 122-42 12 7 21 19 24 35" id="aa"/><path fill="#333" d="M87 75C49 33 22-17 22-94c0-76 28-126 65-167h31c-38 41-64 92-64 168S80 34 118 75H87" id="ab"/><path fill="#333" d="M33-261c38 41 65 92 65 168S71 34 33 75H2C39 34 66-17 66-93S39-220 2-261h31" id="ac"/><g id="b"><use transform="matrix(0.05,0,0,0.05,0,0)" xlink:href="#T"/><use transform="matrix(0.05,0,0,0.05,10.5,0)" xlink:href="#U"/><use transform="matrix(0.05,0,0,0.05,20.5,0)" xlink:href="#V"/><use transform="matrix(0.05,0,0,0.05,30.5,0)" xlink:href="#W"/><use transform="matrix(0.05,0,0,0.05,35.5,0)" xlink:href="#X"/><use transform="matrix(0.05,0,0,0.05,47.5,0)" xlink:href="#Y"/><use transform="matrix(0.05,0,0,0.05,57.5,0)" xlink:href="#Y"/><use transform="matrix(0.05,0,0,0.05,67.5,0)" xlink:href="#Z"/><use transform="matrix(0.05,0,0,0.05,76.5,0)" xlink:href="#aa"/><use transform="matrix(0.05,0,0,0.05,85.5,0)" xlink:href="#ab"/><use transform="matrix(0.05,0,0,0.05,91.45,0)" xlink:href="#ac"/></g><path fill="#333" d="M33-154v-36h34v36H33zM33 0v-36h34V0H33" id="ad"/><use transform="matrix(0.05,0,0,0.05,0,0)" xlink:href="#ad" id="c"/><path fill="#333" d="M30 0v-248h33v221h125V0H30" id="ae"/><path fill="#333" d="M24-231v-30h32v30H24zM24 0v-190h32V0H24" id="af"/><path fill="#333" d="M18-100v-36l175-74v27L42-118l151 64v27" id="ag"/><path fill="#333" d="M18-27v-27l151-64-151-65v-27l175 74v36" id="ah"/><g id="d"><use transform="matrix(0.05,0,0,0.05,0,0)" xlink:href="#ae"/><use transform="matrix(0.05,0,0,0.05,10,0)" xlink:href="#af"/><use transform="matrix(0.05,0,0,0.05,13.949999999999998,0)" xlink:href="#aa"/><use transform="matrix(0.05,0,0,0.05,22.95,0)" xlink:href="#W"/><use transform="matrix(0.05,0,0,0.05,27.950000000000003,0)" xlink:href="#ag"/><use transform="matrix(0.05,0,0,0.05,38.45,0)" xlink:href="#X"/><use transform="matrix(0.05,0,0,0.05,50.45,0)" xlink:href="#Y"/><use transform="matrix(0.05,0,0,0.05,60.45,0)" xlink:href="#Y"/><use transform="matrix(0.05,0,0,0.05,70.45,0)" xlink:href="#Z"/><use transform="matrix(0.05,0,0,0.05,79.45,0)" xlink:href="#ah"/></g><path fill="#333" d="M141-36C126-15 110 5 73 4 37 3 15-17 15-53c-1-64 63-63 125-63 3-35-9-54-41-54-24 1-41 7-42 31l-33-3c5-37 33-52 76-52 45 0 72 20 72 64v82c-1 20 7 32 28 27v20c-31 9-61-2-59-35zM48-53c0 20 12 33 32 33 41-3 63-29 60-74-43 2-92-5-92 41" id="ai"/><path fill="#333" d="M85-194c31 0 48 13 60 33l-1-100h32l1 261h-30c-2-10 0-23-3-31C134-8 116 4 85 4 32 4 16-35 15-94c0-66 23-100 70-100zm9 24c-40 0-46 34-46 75 0 40 6 74 45 74 42 0 51-32 51-76 0-42-9-74-50-73" id="aj"/><path fill="#333" d="M115-194c53 0 69 39 70 98 0 66-23 100-70 100C84 3 66-7 56-30L54 0H23l1-261h32v101c10-23 28-34 59-34zm-8 174c40 0 45-34 45-75 0-40-5-75-45-74-42 0-51 32-51 76 0 43 10 73 51 73" id="ak"/><g id="e"><use transform="matrix(0.05,0,0,0.05,0,0)" xlink:href="#T"/><use transform="matrix(0.05,0,0,0.05,10.5,0)" xlink:href="#ai"/><use transform="matrix(0.05,0,0,0.05,20.5,0)" xlink:href="#aj"/><use transform="matrix(0.05,0,0,0.05,30.5,0)" xlink:href="#aj"/><use transform="matrix(0.05,0,0,0.05,40.5,0)" xlink:href="#X"/><use transform="matrix(0.05,0,0,0.05,52.5,0)" xlink:href="#Y"/><use transform="matrix(0.05,0,0,0.05,62.5,0)" xlink:href="#Y"/><use transform="matrix(0.05,0,0,0.05,72.5,0)" xlink:href="#Z"/><use transform="matrix(0.05,0,0,0.05,81.5,0)" xlink:href="#ab"/><use transform="matrix(0.05,0,0,0.05,87.45,0)" xlink:href="#ak"/><use transform="matrix(0.05,0,0,0.05,97.45,0)" xlink:href="#Y"/><use transform="matrix(0.05,0,0,0.05,107.45,0)" xlink:href="#Y"/><use transform="matrix(0.05,0,0,0.05,117.45,0)" xlink:href="#Z"/><use transform="matrix(0.05,0,0,0.05,126.45,0)" xlink:href="#ad"/></g><g id="f"><use transform="matrix(0.05,0,0,0.05,0,0)" xlink:href="#X"/><use transform="matrix(0.05,0,0,0.05,12,0)" xlink:href="#Y"/><use transform="matrix(0.05,0,0,0.05,22,0)" xlink:href="#Y"/><use transform="matrix(0.05,0,0,0.05,32,0)" xlink:href="#Z"/><use transform="matrix(0.05,0,0,0.05,41,0)" xlink:href="#ac"/></g><path fill="#333" d="M108 0H70L1-190h34L89-25l56-165h34" id="al"/><g id="g"><use transform="matrix(0.05,0,0,0.05,0,0)" xlink:href="#al"/><use transform="matrix(0.05,0,0,0.05,9,0)" xlink:href="#Y"/><use transform="matrix(0.05,0,0,0.05,19,0)" xlink:href="#af"/><use transform="matrix(0.05,0,0,0.05,22.95,0)" xlink:href="#aj"/></g><g id="h"><use transform="matrix(0.05,0,0,0.05,0,0)" xlink:href="#T"/><use transform="matrix(0.05,0,0,0.05,10.5,0)" xlink:href="#ai"/><use transform="matrix(0.05,0,0,0.05,20.5,0)" xlink:href="#aj"/><use transform="matrix(0.05,0,0,0.05,30.5,0)" xlink:href="#aj"/><use transform="matrix(0.05,0,0,0.05,40.5,0)" xlink:href="#X"/><use transform="matrix(0.05,0,0,0.05,52.5,0)" xlink:href="#Y"/><use transform="matrix(0.05,0,0,0.05,62.5,0)" xlink:href="#Y"/><use transform="matrix(0.05,0,0,0.05,72.5,0)" xlink:href="#Z"/><use transform="matrix(0.05,0,0,0.05,81.5,0)" xlink:href="#aa"/><use transform="matrix(0.05,0,0,0.05,90.5,0)" xlink:href="#ab"/><use transform="matrix(0.05,0,0,0.05,96.45,0)" xlink:href="#ak"/><use transform="matrix(0.05,0,0,0.05,106.45,0)" xlink:href="#Y"/><use transform="matrix(0.05,0,0,0.05,116.45,0)" xlink:href="#Y"/><use transform="matrix(0.05,0,0,0.05,126.45,0)" xlink:href="#Z"/><use transform="matrix(0.05,0,0,0.05,135.45,0)" xlink:href="#aa"/><use transform="matrix(0.05,0,0,0.05,144.45,0)" xlink:href="#ad"/></g><g id="i"><use transform="matrix(0.05,0,0,0.05,0,0)" xlink:href="#ae"/><use transform="matrix(0.05,0,0,0.05,10,0)" xlink:href="#af"/><use transform="matrix(0.05,0,0,0.05,13.949999999999998,0)" xlink:href="#aa"/><use transform="matrix(0.05,0,0,0.05,22.95,0)" xlink:href="#W"/><use transform="matrix(0.05,0,0,0.05,27.950000000000003,0)" xlink:href="#ag"/><use transform="matrix(0.05,0,0,0.05,38.45,0)" xlink:href="#X"/><use transform="matrix(0.05,0,0,0.05,50.45,0)" xlink:href="#Y"/><use transform="matrix(0.05,0,0,0.05,60.45,0)" xlink:href="#Y"/><use transform="matrix(0.05,0,0,0.05,70.45,0)" xlink:href="#Z"/><use transform="matrix(0.05,0,0,0.05,79.45,0)" xlink:href="#ah"/><use transform="matrix(0.05,0,0,0.05,89.95,0)" xlink:href="#ac"/></g><g id="j"><use transform="matrix(0.05,0,0,0.05,0,0)" xlink:href="#al"/><use transform="matrix(0.05,0,0,0.05,9,0)" xlink:href="#Y"/><use transform="matrix(0.05,0,0,0.05,19,0)" xlink:href="#af"/><use transform="matrix(0.05,0,0,0.05,22.95,0)" xlink:href="#aj"/></g><path fill="#333" d="M24-248c93 1 206-16 204 79-1 75-69 88-152 82V0H24v-248zm52 121c47 0 100 7 100-41 0-47-54-39-100-39v80" id="am"/><path fill="#333" d="M110-194c64 0 96 36 96 99 0 64-35 99-97 99-61 0-95-36-95-99 0-62 34-99 96-99zm-1 164c35 0 45-28 45-65 0-40-10-65-43-65-34 0-45 26-45 65 0 36 10 65 43 65" id="an"/><path fill="#333" d="M195-6C206 82 75 100 31 46c-4-6-6-13-8-21l49-6c3 16 16 24 34 25 40 0 42-37 40-79-11 22-30 35-61 35-53 0-70-43-70-97 0-56 18-96 73-97 30 0 46 14 59 34l2-30h47zm-90-29c32 0 41-27 41-63 0-35-9-62-40-62-32 0-39 29-40 63 0 36 9 62 39 62" id="ao"/><path fill="#333" d="M220-157c-53 9-28 100-34 157h-49v-107c1-27-5-49-29-50C55-147 81-57 75 0H25l-1-190h47c2 12-1 28 3 38 10-53 101-56 108 0 13-22 24-43 59-42 82 1 51 116 57 194h-49v-107c-1-25-5-48-29-50" id="ap"/><g id="k"><use transform="matrix(0.05,0,0,0.05,0,0)" xlink:href="#am"/><use transform="matrix(0.05,0,0,0.05,12,0)" xlink:href="#Q"/><use transform="matrix(0.05,0,0,0.05,19,0)" xlink:href="#an"/><use transform="matrix(0.05,0,0,0.05,29.950000000000003,0)" xlink:href="#ao"/><use transform="matrix(0.05,0,0,0.05,40.900000000000006,0)" xlink:href="#Q"/><use transform="matrix(0.05,0,0,0.05,47.900000000000006,0)" xlink:href="#R"/><use transform="matrix(0.05,0,0,0.05,57.900000000000006,0)" xlink:href="#ap"/></g><path fill="#333" d="M210-169c-67 3-38 105-44 169h-31v-121c0-29-5-50-35-48C34-165 62-65 56 0H25l-1-190h30c1 10-1 24 2 32 10-44 99-50 107 0 11-21 27-35 58-36 85-2 47 119 55 194h-31v-121c0-29-5-49-35-48" id="aq"/><path fill="#333" d="M117-194c89-4 53 116 60 194h-32v-121c0-31-8-49-39-48C34-167 62-67 57 0H25l-1-190h30c1 10-1 24 2 32 11-22 29-35 61-36" id="ar"/><path fill="#333" d="M185-189c-5-48-123-54-124 2 14 75 158 14 163 119 3 78-121 87-175 55-17-10-28-26-33-46l33-7c5 56 141 63 141-1 0-78-155-14-162-118-5-82 145-84 179-34 5 7 8 16 11 25" id="as"/><path fill="#333" d="M114-163C36-179 61-72 57 0H25l-1-190h30c1 12-1 29 2 39 6-27 23-49 58-41v29" id="at"/><path fill="#333" d="M26 75v-336h71v23H56V52h41v23H26" id="au"/><path fill="#333" d="M3 75V52h41v-290H3v-23h71V75H3" id="av"/><g id="l"><use transform="matrix(0.05,0,0,0.05,0,0)" xlink:href="#T"/><use transform="matrix(0.05,0,0,0.05,10.5,0)" xlink:href="#aq"/><use transform="matrix(0.05,0,0,0.05,25.450000000000003,0)" xlink:href="#ai"/><use transform="matrix(0.05,0,0,0.05,35.45,0)" xlink:href="#af"/><use transform="matrix(0.05,0,0,0.05,39.400000000000006,0)" xlink:href="#ar"/><use transform="matrix(0.05,0,0,0.05,49.400000000000006,0)" xlink:href="#ab"/><use transform="matrix(0.05,0,0,0.05,55.35,0)" xlink:href="#as"/><use transform="matrix(0.05,0,0,0.05,67.35000000000001,0)" xlink:href="#W"/><use transform="matrix(0.05,0,0,0.05,72.35000000000001,0)" xlink:href="#at"/><use transform="matrix(0.05,0,0,0.05,78.30000000000001,0)" xlink:href="#af"/><use transform="matrix(0.05,0,0,0.05,82.25000000000001,0)" xlink:href="#ar"/><use transform="matrix(0.05,0,0,0.05,92.25000000000001,0)" xlink:href="#U"/><use transform="matrix(0.05,0,0,0.05,102.25000000000001,0)" xlink:href="#au"/><use transform="matrix(0.05,0,0,0.05,107.25,0)" xlink:href="#av"/></g><g id="m"><use transform="matrix(0.05,0,0,0.05,0,0)" xlink:href="#ai"/><use transform="matrix(0.05,0,0,0.05,10,0)" xlink:href="#at"/><use transform="matrix(0.05,0,0,0.05,15.949999999999998,0)" xlink:href="#U"/><use transform="matrix(0.05,0,0,0.05,25.950000000000003,0)" xlink:href="#aa"/><use transform="matrix(0.05,0,0,0.05,34.95,0)" xlink:href="#ac"/><use transform="matrix(0.05,0,0,0.05,40.900000000000006,0)" xlink:href="#ad"/></g><path fill="#333" d="M182-130c37 4 62 22 62 59C244 23 116-4 24 0v-248c84 5 203-23 205 63 0 31-19 50-47 55zM76-148c40-3 101 13 101-30 0-44-60-28-101-31v61zm0 110c48-3 116 14 116-37 0-48-69-32-116-35v72" id="aw"/><path fill="#333" d="M147 0L96-86 75-71V0H25v-261h50v150l67-79h53l-66 74L201 0h-54" id="ax"/><g id="n"><use transform="matrix(0.05,0,0,0.05,0,0)" xlink:href="#aw"/><use transform="matrix(0.05,0,0,0.05,12.950000000000001,0)" xlink:href="#an"/><use transform="matrix(0.05,0,0,0.05,23.900000000000002,0)" xlink:href="#an"/><use transform="matrix(0.05,0,0,0.05,34.85,0)" xlink:href="#ax"/></g><path fill="#333" d="M33 0v-248h34V0H33" id="ay"/><g id="o"><use transform="matrix(0.05,0,0,0.05,0,0)" xlink:href="#T"/><use transform="matrix(0.05,0,0,0.05,10.5,0)" xlink:href="#U"/><use transform="matrix(0.05,0,0,0.05,20.5,0)" xlink:href="#V"/><use transform="matrix(0.05,0,0,0.05,30.5,0)" xlink:href="#W"/><use transform="matrix(0.05,0,0,0.05,35.5,0)" xlink:href="#ay"/><use transform="matrix(0.05,0,0,0.05,40.5,0)" xlink:href="#aa"/><use transform="matrix(0.05,0,0,0.05,49.5,0)" xlink:href="#ak"/><use transform="matrix(0.05,0,0,0.05,59.5,0)" xlink:href="#ar"/><use transform="matrix(0.05,0,0,0.05,69.5,0)" xlink:href="#ab"/><use transform="matrix(0.05,0,0,0.05,75.45,0)" xlink:href="#ac"/><use transform="matrix(0.05,0,0,0.05,81.4,0)" xlink:href="#ad"/></g><g id="p"><use transform="matrix(0.05,0,0,0.05,0,0)" xlink:href="#as"/><use transform="matrix(0.05,0,0,0.05,12,0)" xlink:href="#W"/><use transform="matrix(0.05,0,0,0.05,17,0)" xlink:href="#at"/><use transform="matrix(0.05,0,0,0.05,22.95,0)" xlink:href="#af"/><use transform="matrix(0.05,0,0,0.05,26.899999999999995,0)" xlink:href="#ar"/><use transform="matrix(0.05,0,0,0.05,36.9,0)" xlink:href="#U"/></g><path fill="#333" d="M205 0l-28-72H64L36 0H1l101-248h38L239 0h-34zm-38-99l-47-123c-12 45-31 82-46 123h93" id="az"/><path fill="#333" d="M84 4C-5 8 30-112 23-190h32v120c0 31 7 50 39 49 72-2 45-101 50-169h31l1 190h-30c-1-10 1-25-2-33-11 22-28 36-60 37" id="aA"/><path fill="#333" d="M106-169C34-169 62-67 57 0H25v-261h32l-1 103c12-21 28-36 61-36 89 0 53 116 60 194h-32v-121c2-32-8-49-39-48" id="aB"/><g id="q"><use transform="matrix(0.05,0,0,0.05,0,0)" xlink:href="#T"/><use transform="matrix(0.05,0,0,0.05,10.5,0)" xlink:href="#U"/><use transform="matrix(0.05,0,0,0.05,20.5,0)" xlink:href="#V"/><use transform="matrix(0.05,0,0,0.05,30.5,0)" xlink:href="#W"/><use transform="matrix(0.05,0,0,0.05,35.5,0)" xlink:href="#az"/><use transform="matrix(0.05,0,0,0.05,47.5,0)" xlink:href="#aA"/><use transform="matrix(0.05,0,0,0.05,57.5,0)" xlink:href="#W"/><use transform="matrix(0.05,0,0,0.05,62.5,0)" xlink:href="#aB"/><use transform="matrix(0.05,0,0,0.05,72.5,0)" xlink:href="#Y"/><use transform="matrix(0.05,0,0,0.05,82.5,0)" xlink:href="#at"/><use transform="matrix(0.05,0,0,0.05,88.45,0)" xlink:href="#ab"/><use transform="matrix(0.05,0,0,0.05,94.4,0)" xlink:href="#ac"/><use transform="matrix(0.05,0,0,0.05,100.35000000000001,0)" xlink:href="#ad"/></g><path fill="#333" d="M127-220V0H93v-220H8v-28h204v28h-85" id="aC"/><path fill="#333" d="M24 0v-261h32V0H24" id="aD"/><g id="r"><use transform="matrix(0.05,0,0,0.05,0,0)" xlink:href="#T"/><use transform="matrix(0.05,0,0,0.05,10.5,0)" xlink:href="#U"/><use transform="matrix(0.05,0,0,0.05,20.5,0)" xlink:href="#V"/><use transform="matrix(0.05,0,0,0.05,30.5,0)" xlink:href="#W"/><use transform="matrix(0.05,0,0,0.05,35.5,0)" xlink:href="#aC"/><use transform="matrix(0.05,0,0,0.05,45.800000000000004,0)" xlink:href="#af"/><use transform="matrix(0.05,0,0,0.05,49.75000000000001,0)" xlink:href="#W"/><use transform="matrix(0.05,0,0,0.05,54.75,0)" xlink:href="#aA"/><use transform="matrix(0.05,0,0,0.05,64.75,0)" xlink:href="#aD"/><use transform="matrix(0.05,0,0,0.05,68.7,0)" xlink:href="#Y"/><use transform="matrix(0.05,0,0,0.05,78.7,0)" xlink:href="#ab"/><use transform="matrix(0.05,0,0,0.05,84.65,0)" xlink:href="#ac"/><use transform="matrix(0.05,0,0,0.05,90.60000000000001,0)" xlink:href="#ad"/></g><g id="s"><use transform="matrix(0.05,0,0,0.05,0,0)" xlink:href="#T"/><use transform="matrix(0.05,0,0,0.05,10.5,0)" xlink:href="#aa"/><use transform="matrix(0.05,0,0,0.05,19.5,0)" xlink:href="#V"/><use transform="matrix(0.05,0,0,0.05,29.5,0)" xlink:href="#W"/><use transform="matrix(0.05,0,0,0.05,34.5,0)" xlink:href="#ay"/><use transform="matrix(0.05,0,0,0.05,39.5,0)" xlink:href="#aa"/><use transform="matrix(0.05,0,0,0.05,48.5,0)" xlink:href="#ak"/><use transform="matrix(0.05,0,0,0.05,58.5,0)" xlink:href="#ar"/><use transform="matrix(0.05,0,0,0.05,68.5,0)" xlink:href="#ab"/><use transform="matrix(0.05,0,0,0.05,74.45,0)" xlink:href="#ac"/><use transform="matrix(0.05,0,0,0.05,80.4,0)" xlink:href="#ad"/></g><g id="t"><use transform="matrix(0.05,0,0,0.05,0,0)" xlink:href="#T"/><use transform="matrix(0.05,0,0,0.05,10.5,0)" xlink:href="#aa"/><use transform="matrix(0.05,0,0,0.05,19.5,0)" xlink:href="#V"/><use transform="matrix(0.05,0,0,0.05,29.5,0)" xlink:href="#W"/><use transform="matrix(0.05,0,0,0.05,34.5,0)" xlink:href="#az"/><use transform="matrix(0.05,0,0,0.05,46.5,0)" xlink:href="#aA"/><use transform="matrix(0.05,0,0,0.05,56.5,0)" xlink:href="#W"/><use transform="matrix(0.05,0,0,0.05,61.5,0)" xlink:href="#aB"/><use transform="matrix(0.05,0,0,0.05,71.5,0)" xlink:href="#Y"/><use transform="matrix(0.05,0,0,0.05,81.5,0)" xlink:href="#at"/><use transform="matrix(0.05,0,0,0.05,87.45,0)" xlink:href="#ab"/><use transform="matrix(0.05,0,0,0.05,93.4,0)" xlink:href="#ac"/><use transform="matrix(0.05,0,0,0.05,99.35000000000001,0)" xlink:href="#ad"/></g><g id="u"><use transform="matrix(0.05,0,0,0.05,0,0)" xlink:href="#T"/><use transform="matrix(0.05,0,0,0.05,10.5,0)" xlink:href="#aa"/><use transform="matrix(0.05,0,0,0.05,19.5,0)" xlink:href="#V"/><use transform="matrix(0.05,0,0,0.05,29.5,0)" xlink:href="#W"/><use transform="matrix(0.05,0,0,0.05,34.5,0)" xlink:href="#aC"/><use transform="matrix(0.05,0,0,0.05,44.800000000000004,0)" xlink:href="#af"/><use transform="matrix(0.05,0,0,0.05,48.75000000000001,0)" xlink:href="#W"/><use transform="matrix(0.05,0,0,0.05,53.75,0)" xlink:href="#aA"/><use transform="matrix(0.05,0,0,0.05,63.75,0)" xlink:href="#aD"/><use transform="matrix(0.05,0,0,0.05,67.7,0)" xlink:href="#Y"/><use transform="matrix(0.05,0,0,0.05,77.7,0)" xlink:href="#ab"/><use transform="matrix(0.05,0,0,0.05,83.65,0)" xlink:href="#ac"/><use transform="matrix(0.05,0,0,0.05,89.60000000000001,0)" xlink:href="#ad"/></g><path fill="#333" d="M137-138c1-29-70-34-71-4 15 46 118 7 119 86 1 83-164 76-172 9l43-7c4 19 20 25 44 25 33 8 57-30 24-41C81-84 22-81 20-136c-2-80 154-74 161-7" id="aE"/><g id="v"><use transform="matrix(0.04938271604938272,0,0,0.04938271604938272,0,0)" xlink:href="#aw"/><use transform="matrix(0.04938271604938272,0,0,0.04938271604938272,12.790123456790125,0)" xlink:href="#an"/><use transform="matrix(0.04938271604938272,0,0,0.04938271604938272,23.60493827160494,0)" xlink:href="#an"/><use transform="matrix(0.04938271604938272,0,0,0.04938271604938272,34.41975308641975,0)" xlink:href="#ax"/><use transform="matrix(0.04938271604938272,0,0,0.04938271604938272,44.2962962962963,0)" xlink:href="#aE"/></g><path fill="#333" d="M199 0l-22-63H83L61 0H9l90-248h61L250 0h-51zm-33-102l-36-108c-10 38-24 72-36 108h72" id="aF"/><path fill="#333" d="M85 4C-2 5 27-109 22-190h50c7 57-23 150 33 157 60-5 35-97 40-157h50l1 190h-47c-2-12 1-28-3-38-12 25-28 42-61 42" id="aG"/><path fill="#333" d="M115-3C79 11 28 4 28-45v-112H4v-33h27l15-45h31v45h36v33H77v99c-1 23 16 31 38 25v30" id="aH"/><path fill="#333" d="M114-157C55-157 80-60 75 0H25v-261h50l-1 109c12-26 28-41 61-42 86-1 58 113 63 194h-50c-7-57 23-157-34-157" id="aI"/><g id="w"><use transform="matrix(0.05,0,0,0.05,0,0)" xlink:href="#aF"/><use transform="matrix(0.05,0,0,0.05,12.950000000000001,0)" xlink:href="#aG"/><use transform="matrix(0.05,0,0,0.05,23.900000000000002,0)" xlink:href="#aH"/><use transform="matrix(0.05,0,0,0.05,29.85,0)" xlink:href="#aI"/><use transform="matrix(0.05,0,0,0.05,40.800000000000004,0)" xlink:href="#an"/><use transform="matrix(0.05,0,0,0.05,51.75,0)" xlink:href="#Q"/></g><path fill="#333" d="M190 0L58-211 59 0H30v-248h39L202-35l-2-213h31V0h-41" id="aJ"/><g id="x"><use transform="matrix(0.05,0,0,0.05,0,0)" xlink:href="#T"/><use transform="matrix(0.05,0,0,0.05,10.5,0)" xlink:href="#U"/><use transform="matrix(0.05,0,0,0.05,20.5,0)" xlink:href="#V"/><use transform="matrix(0.05,0,0,0.05,30.5,0)" xlink:href="#W"/><use transform="matrix(0.05,0,0,0.05,35.5,0)" xlink:href="#aJ"/><use transform="matrix(0.05,0,0,0.05,48.45,0)" xlink:href="#ai"/><use transform="matrix(0.05,0,0,0.05,58.45,0)" xlink:href="#aq"/><use transform="matrix(0.05,0,0,0.05,73.4,0)" xlink:href="#V"/><use transform="matrix(0.05,0,0,0.05,83.4,0)" xlink:href="#ab"/><use transform="matrix(0.05,0,0,0.05,89.35000000000001,0)" xlink:href="#ac"/><use transform="matrix(0.05,0,0,0.05,95.30000000000001,0)" xlink:href="#ad"/></g><g id="y"><use transform="matrix(0.05,0,0,0.05,0,0)" xlink:href="#as"/><use transform="matrix(0.05,0,0,0.05,12,0)" xlink:href="#W"/><use transform="matrix(0.05,0,0,0.05,17,0)" xlink:href="#at"/><use transform="matrix(0.05,0,0,0.05,22.95,0)" xlink:href="#af"/><use transform="matrix(0.05,0,0,0.05,26.899999999999995,0)" xlink:href="#ar"/><use transform="matrix(0.05,0,0,0.05,36.9,0)" xlink:href="#U"/></g><g id="z"><use transform="matrix(0.04938271604938272,0,0,0.04938271604938272,0,0)" xlink:href="#aF"/><use transform="matrix(0.04938271604938272,0,0,0.04938271604938272,12.790123456790125,0)" xlink:href="#aG"/><use transform="matrix(0.04938271604938272,0,0,0.04938271604938272,23.60493827160494,0)" xlink:href="#aH"/><use transform="matrix(0.04938271604938272,0,0,0.04938271604938272,29.481481481481485,0)" xlink:href="#aI"/><use transform="matrix(0.04938271604938272,0,0,0.04938271604938272,40.2962962962963,0)" xlink:href="#an"/><use transform="matrix(0.04938271604938272,0,0,0.04938271604938272,51.111111111111114,0)" xlink:href="#Q"/><use transform="matrix(0.04938271604938272,0,0,0.04938271604938272,58.0246913580247,0)" xlink:href="#aE"/></g><g id="A"><use transform="matrix(0.04938271604938272,0,0,0.04938271604938272,0,0)" xlink:href="#aF"/><use transform="matrix(0.04938271604938272,0,0,0.04938271604938272,12.790123456790125,0)" xlink:href="#aG"/><use transform="matrix(0.04938271604938272,0,0,0.04938271604938272,23.60493827160494,0)" xlink:href="#aH"/><use transform="matrix(0.04938271604938272,0,0,0.04938271604938272,29.481481481481485,0)" xlink:href="#aI"/><use transform="matrix(0.04938271604938272,0,0,0.04938271604938272,40.2962962962963,0)" xlink:href="#an"/><use transform="matrix(0.04938271604938272,0,0,0.04938271604938272,51.111111111111114,0)" xlink:href="#Q"/></g><path fill="#333" d="M15-91v-56l181-69v40L49-119l147 57v40" id="aK"/><path fill="#333" d="M135-194c87-1 58 113 63 194h-50c-7-57 23-157-34-157-59 0-34 97-39 157H25l-1-190h47c2 12-1 28 3 38 12-26 28-41 61-42" id="aL"/><path fill="#333" d="M185-48c-13 30-37 53-82 52C43 2 14-33 14-96s30-98 90-98c62 0 83 45 84 108H66c0 31 8 55 39 56 18 0 30-7 34-22zm-45-69c5-46-57-63-70-21-2 6-4 13-4 21h74" id="aM"/><path fill="#333" d="M121-226c-27-7-43 5-38 36h38v33H83V0H34v-157H6v-33h28c-9-59 32-81 87-68v32" id="aN"/><path fill="#333" d="M190-63c-7 42-38 67-86 67-59 0-84-38-90-98-12-110 154-137 174-36l-49 2c-2-19-15-32-35-32-30 0-35 28-38 64-6 74 65 87 74 30" id="aO"/><path fill="#333" d="M15-22v-40l146-57-146-57v-40l181 69v56" id="aP"/><g id="B"><use transform="matrix(0.05,0,0,0.05,0,0)" xlink:href="#aK"/><use transform="matrix(0.05,0,0,0.05,10.5,0)" xlink:href="#aK"/><use transform="matrix(0.05,0,0,0.05,21,0)" xlink:href="#O"/><use transform="matrix(0.05,0,0,0.05,26,0)" xlink:href="#aL"/><use transform="matrix(0.05,0,0,0.05,36.95,0)" xlink:href="#aH"/><use transform="matrix(0.05,0,0,0.05,42.900000000000006,0)" xlink:href="#aM"/><use transform="matrix(0.05,0,0,0.05,52.900000000000006,0)" xlink:href="#Q"/><use transform="matrix(0.05,0,0,0.05,59.900000000000006,0)" xlink:href="#aN"/><use transform="matrix(0.05,0,0,0.05,65.85000000000001,0)" xlink:href="#R"/><use transform="matrix(0.05,0,0,0.05,75.85000000000001,0)" xlink:href="#aO"/><use transform="matrix(0.05,0,0,0.05,85.85000000000001,0)" xlink:href="#aM"/><use transform="matrix(0.05,0,0,0.05,95.85000000000001,0)" xlink:href="#aP"/><use transform="matrix(0.05,0,0,0.05,106.35000000000001,0)" xlink:href="#aP"/></g><path fill="#333" d="M275 0h-61l-44-196L126 0H64L0-248h53L97-49l45-199h58l43 199 44-199h52" id="aQ"/><path fill="#333" d="M24 0v-248h52V0H24" id="aR"/><g id="C"><use transform="matrix(0.05,0,0,0.05,0,0)" xlink:href="#aQ"/><use transform="matrix(0.05,0,0,0.05,16.599999999999998,0)" xlink:href="#Q"/><use transform="matrix(0.05,0,0,0.05,23.599999999999998,0)" xlink:href="#O"/><use transform="matrix(0.05,0,0,0.05,28.599999999999994,0)" xlink:href="#aH"/><use transform="matrix(0.05,0,0,0.05,34.55,0)" xlink:href="#aM"/><use transform="matrix(0.05,0,0,0.05,44.55,0)" xlink:href="#Q"/><use transform="matrix(0.05,0,0,0.05,51.54999999999999,0)" xlink:href="#aR"/><use transform="matrix(0.05,0,0,0.05,56.54999999999999,0)" xlink:href="#aL"/><use transform="matrix(0.05,0,0,0.05,67.5,0)" xlink:href="#aH"/><use transform="matrix(0.05,0,0,0.05,73.45,0)" xlink:href="#aM"/><use transform="matrix(0.05,0,0,0.05,83.45,0)" xlink:href="#Q"/><use transform="matrix(0.05,0,0,0.05,90.45,0)" xlink:href="#aN"/><use transform="matrix(0.05,0,0,0.05,96.4,0)" xlink:href="#R"/><use transform="matrix(0.05,0,0,0.05,106.4,0)" xlink:href="#aO"/><use transform="matrix(0.05,0,0,0.05,116.4,0)" xlink:href="#aM"/></g><path fill="#333" d="M141 0L90-78 38 0H4l68-98-65-92h35l48 74 47-74h35l-64 92 68 98h-35" id="aS"/><path fill="#333" d="M115-194c55 1 70 41 70 98S169 2 115 4C84 4 66-9 55-30l1 105H24l-1-265h31l2 30c10-21 28-34 59-34zm-8 174c40 0 45-34 45-75s-6-73-45-74c-42 0-51 32-51 76 0 43 10 73 51 73" id="aT"/><g id="D"><use transform="matrix(0.05,0,0,0.05,0,0)" xlink:href="#T"/><use transform="matrix(0.05,0,0,0.05,10.5,0)" xlink:href="#V"/><use transform="matrix(0.05,0,0,0.05,20.5,0)" xlink:href="#aS"/><use transform="matrix(0.05,0,0,0.05,29.5,0)" xlink:href="#aT"/><use transform="matrix(0.05,0,0,0.05,39.5,0)" xlink:href="#Y"/><use transform="matrix(0.05,0,0,0.05,49.5,0)" xlink:href="#at"/><use transform="matrix(0.05,0,0,0.05,55.45,0)" xlink:href="#W"/><use transform="matrix(0.05,0,0,0.05,60.45,0)" xlink:href="#ab"/><use transform="matrix(0.05,0,0,0.05,66.4,0)" xlink:href="#aT"/><use transform="matrix(0.05,0,0,0.05,76.4,0)" xlink:href="#ai"/><use transform="matrix(0.05,0,0,0.05,86.4,0)" xlink:href="#W"/><use transform="matrix(0.05,0,0,0.05,91.4,0)" xlink:href="#aB"/></g><path fill="#333" d="M68-38c1 34 0 65-14 84H32c9-13 17-26 17-46H33v-38h35" id="aU"/><g id="E"><use transform="matrix(0.05,0,0,0.05,0,0)" xlink:href="#as"/><use transform="matrix(0.05,0,0,0.05,12,0)" xlink:href="#W"/><use transform="matrix(0.05,0,0,0.05,17,0)" xlink:href="#at"/><use transform="matrix(0.05,0,0,0.05,22.95,0)" xlink:href="#af"/><use transform="matrix(0.05,0,0,0.05,26.899999999999995,0)" xlink:href="#ar"/><use transform="matrix(0.05,0,0,0.05,36.9,0)" xlink:href="#U"/><use transform="matrix(0.05,0,0,0.05,46.9,0)" xlink:href="#aU"/></g><g id="F"><use transform="matrix(0.05,0,0,0.05,0,0)" xlink:href="#ak"/><use transform="matrix(0.05,0,0,0.05,10,0)" xlink:href="#Y"/><use transform="matrix(0.05,0,0,0.05,20,0)" xlink:href="#Y"/><use transform="matrix(0.05,0,0,0.05,30,0)" xlink:href="#Z"/><use transform="matrix(0.05,0,0,0.05,39,0)" xlink:href="#aa"/></g><g id="G"><use transform="matrix(0.05,0,0,0.05,0,0)" xlink:href="#ae"/><use transform="matrix(0.05,0,0,0.05,10,0)" xlink:href="#af"/><use transform="matrix(0.05,0,0,0.05,13.949999999999998,0)" xlink:href="#aa"/><use transform="matrix(0.05,0,0,0.05,22.95,0)" xlink:href="#W"/><use transform="matrix(0.05,0,0,0.05,27.950000000000003,0)" xlink:href="#ag"/><use transform="matrix(0.05,0,0,0.05,38.45,0)" xlink:href="#X"/><use transform="matrix(0.05,0,0,0.05,50.45,0)" xlink:href="#Y"/><use transform="matrix(0.05,0,0,0.05,60.45,0)" xlink:href="#Y"/><use transform="matrix(0.05,0,0,0.05,70.45,0)" xlink:href="#Z"/><use transform="matrix(0.05,0,0,0.05,79.45,0)" xlink:href="#aa"/><use transform="matrix(0.05,0,0,0.05,88.45,0)" xlink:href="#ah"/><use transform="matrix(0.05,0,0,0.05,98.95,0)" xlink:href="#ac"/><use transform="matrix(0.05,0,0,0.05,104.9,0)" xlink:href="#ad"/></g><path fill="#333" d="M240-174c0 40-23 61-54 70L253 0h-59l-57-94H76V0H24v-248c93 4 217-23 216 74zM76-134c48-2 112 12 112-38 0-48-66-32-112-35v73" id="aV"/><path fill="#333" d="M88-194c31-1 46 15 58 34l-1-101h50l1 261h-48c-2-10 0-23-3-31C134-8 116 4 84 4 32 4 16-41 15-95c0-56 19-97 73-99zm17 164c33 0 40-30 41-66 1-37-9-64-41-64s-38 30-39 65c0 43 13 65 39 65" id="aW"/><g id="H"><use transform="matrix(0.05,0,0,0.05,0,0)" xlink:href="#aV"/><use transform="matrix(0.05,0,0,0.05,12.950000000000001,0)" xlink:href="#aM"/><use transform="matrix(0.05,0,0,0.05,22.950000000000003,0)" xlink:href="#R"/><use transform="matrix(0.05,0,0,0.05,32.95,0)" xlink:href="#aW"/><use transform="matrix(0.05,0,0,0.05,43.900000000000006,0)" xlink:href="#aM"/><use transform="matrix(0.05,0,0,0.05,53.900000000000006,0)" xlink:href="#Q"/><use transform="matrix(0.05,0,0,0.05,60.900000000000006,0)" xlink:href="#aR"/><use transform="matrix(0.05,0,0,0.05,65.9,0)" xlink:href="#aL"/><use transform="matrix(0.05,0,0,0.05,76.85000000000001,0)" xlink:href="#aH"/><use transform="matrix(0.05,0,0,0.05,82.80000000000001,0)" xlink:href="#aM"/><use transform="matrix(0.05,0,0,0.05,92.80000000000001,0)" xlink:href="#Q"/><use transform="matrix(0.05,0,0,0.05,99.80000000000001,0)" xlink:href="#aN"/><use transform="matrix(0.05,0,0,0.05,105.75,0)" xlink:href="#R"/><use transform="matrix(0.05,0,0,0.05,115.75,0)" xlink:href="#aO"/><use transform="matrix(0.05,0,0,0.05,125.75,0)" xlink:href="#aM"/></g><path fill="#333" d="M63-220v92h138v28H63V0H30v-248h175v28H63" id="aX"/><g id="I"><use transform="matrix(0.05,0,0,0.05,0,0)" xlink:href="#T"/><use transform="matrix(0.05,0,0,0.05,10.5,0)" xlink:href="#at"/><use transform="matrix(0.05,0,0,0.05,16.45,0)" xlink:href="#V"/><use transform="matrix(0.05,0,0,0.05,26.450000000000003,0)" xlink:href="#ai"/><use transform="matrix(0.05,0,0,0.05,36.45,0)" xlink:href="#aj"/><use transform="matrix(0.05,0,0,0.05,46.45,0)" xlink:href="#aX"/><use transform="matrix(0.05,0,0,0.05,57.400000000000006,0)" xlink:href="#af"/><use transform="matrix(0.05,0,0,0.05,61.35,0)" xlink:href="#aD"/><use transform="matrix(0.05,0,0,0.05,65.30000000000001,0)" xlink:href="#V"/><use transform="matrix(0.05,0,0,0.05,75.30000000000001,0)" xlink:href="#ab"/><use transform="matrix(0.05,0,0,0.05,81.25000000000001,0)" xlink:href="#aT"/><use transform="matrix(0.05,0,0,0.05,91.25000000000001,0)" xlink:href="#ai"/><use transform="matrix(0.05,0,0,0.05,101.25000000000001,0)" xlink:href="#W"/><use transform="matrix(0.05,0,0,0.05,106.25,0)" xlink:href="#aB"/></g><g id="J"><use transform="matrix(0.05,0,0,0.05,0,0)" xlink:href="#as"/><use transform="matrix(0.05,0,0,0.05,12,0)" xlink:href="#W"/><use transform="matrix(0.05,0,0,0.05,17,0)" xlink:href="#at"/><use transform="matrix(0.05,0,0,0.05,22.95,0)" xlink:href="#af"/><use transform="matrix(0.05,0,0,0.05,26.899999999999995,0)" xlink:href="#ar"/><use transform="matrix(0.05,0,0,0.05,36.9,0)" xlink:href="#U"/><use transform="matrix(0.05,0,0,0.05,46.9,0)" xlink:href="#ac"/><use transform="matrix(0.05,0,0,0.05,52.85,0)" xlink:href="#ad"/></g><g id="K"><use transform="matrix(0.05,0,0,0.05,0,0)" xlink:href="#ae"/><use transform="matrix(0.05,0,0,0.05,10,0)" xlink:href="#af"/><use transform="matrix(0.05,0,0,0.05,13.949999999999998,0)" xlink:href="#aa"/><use transform="matrix(0.05,0,0,0.05,22.95,0)" xlink:href="#W"/><use transform="matrix(0.05,0,0,0.05,27.950000000000003,0)" xlink:href="#ag"/><use transform="matrix(0.05,0,0,0.05,38.45,0)" xlink:href="#X"/><use transform="matrix(0.05,0,0,0.05,50.45,0)" xlink:href="#Y"/><use transform="matrix(0.05,0,0,0.05,60.45,0)" xlink:href="#Y"/><use transform="matrix(0.05,0,0,0.05,70.45,0)" xlink:href="#Z"/><use transform="matrix(0.05,0,0,0.05,79.45,0)" xlink:href="#aa"/><use transform="matrix(0.05,0,0,0.05,88.45,0)" xlink:href="#ah"/></g><path fill="#333" d="M24 0v-248h195v40H76v63h132v40H76v65h150V0H24" id="aY"/><path fill="#333" d="M144 0l-44-69L55 0H2l70-98-66-92h53l41 62 40-62h54l-67 91 71 99h-54" id="aZ"/><path fill="#333" d="M135-194c53 0 70 44 70 98 0 56-19 98-73 100-31 1-45-17-59-34 3 33 2 69 2 105H25l-1-265h48c2 10 0 23 3 31 11-24 29-35 60-35zM114-30c33 0 39-31 40-66 0-38-9-64-40-64-56 0-55 130 0 130" id="ba"/><path fill="#333" d="M182 0l-62-99L58 0H3l86-130-79-118h55l55 88 55-88h55l-75 118L237 0h-55" id="bb"/><path fill="#333" d="M230 0l2-204L168 0h-37L68-204 70 0H24v-248h70l56 185 57-185h69V0h-46" id="bc"/><g id="L"><use transform="matrix(0.05,0,0,0.05,0,0)" xlink:href="#aY"/><use transform="matrix(0.05,0,0,0.05,12,0)" xlink:href="#aZ"/><use transform="matrix(0.05,0,0,0.05,22,0)" xlink:href="#ba"/><use transform="matrix(0.05,0,0,0.05,32.95,0)" xlink:href="#an"/><use transform="matrix(0.05,0,0,0.05,43.900000000000006,0)" xlink:href="#Q"/><use transform="matrix(0.05,0,0,0.05,50.900000000000006,0)" xlink:href="#aH"/><use transform="matrix(0.05,0,0,0.05,56.85,0)" xlink:href="#aM"/><use transform="matrix(0.05,0,0,0.05,66.85000000000001,0)" xlink:href="#Q"/><use transform="matrix(0.05,0,0,0.05,73.85000000000001,0)" xlink:href="#bb"/><use transform="matrix(0.05,0,0,0.05,85.85000000000001,0)" xlink:href="#bc"/><use transform="matrix(0.05,0,0,0.05,100.80000000000001,0)" xlink:href="#N"/></g><path fill="#333" d="M136-208V0H84v-208H4v-40h212v40h-80" id="bd"/><path fill="#333" d="M76-208v77h127v40H76V0H24v-248h183v40H76" id="be"/><g id="M"><use transform="matrix(0.05,0,0,0.05,0,0)" xlink:href="#aw"/><use transform="matrix(0.05,0,0,0.05,12.950000000000001,0)" xlink:href="#an"/><use transform="matrix(0.05,0,0,0.05,23.900000000000002,0)" xlink:href="#an"/><use transform="matrix(0.05,0,0,0.05,34.85,0)" xlink:href="#ax"/><use transform="matrix(0.05,0,0,0.05,44.85,0)" xlink:href="#aV"/><use transform="matrix(0.05,0,0,0.05,57.800000000000004,0)" xlink:href="#aM"/><use transform="matrix(0.05,0,0,0.05,67.80000000000001,0)" xlink:href="#R"/><use transform="matrix(0.05,0,0,0.05,77.80000000000001,0)" xlink:href="#aW"/><use transform="matrix(0.05,0,0,0.05,88.75000000000001,0)" xlink:href="#aM"/><use transform="matrix(0.05,0,0,0.05,98.75000000000001,0)" xlink:href="#Q"/><use transform="matrix(0.05,0,0,0.05,105.75,0)" xlink:href="#bd"/><use transform="matrix(0.05,0,0,0.05,115.35000000000002,0)" xlink:href="#aF"/><use transform="matrix(0.05,0,0,0.05,128.3,0)" xlink:href="#aw"/><use transform="matrix(0.05,0,0,0.05,141.25,0)" xlink:href="#be"/><use transform="matrix(0.05,0,0,0.05,152.2,0)" xlink:href="#an"/><use transform="matrix(0.05,0,0,0.05,163.14999999999998,0)" xlink:href="#Q"/><use transform="matrix(0.05,0,0,0.05,170.14999999999998,0)" xlink:href="#ap"/><use transform="matrix(0.05,0,0,0.05,186.14999999999998,0)" xlink:href="#R"/><use transform="matrix(0.05,0,0,0.05,196.14999999999998,0)" xlink:href="#aH"/></g></defs></g></svg>